<?xml version="1.0" encoding="iso-8859-1"?>
<!-- Generator: Adobe Illustrator 19.0.0, SVG Export Plug-In . SVG Version: 6.00 Build 0)  -->
<svg version="1.1" id="Layer_1" xmlns="http://www.w3.org/2000/svg" xmlns:xlink="http://www.w3.org/1999/xlink" x="0px" y="0px"
	 viewBox="0 0 473.677 473.677" style="enable-background:new 0 0 473.677 473.677;" xml:space="preserve">
<path style="fill:#357180;" d="M0,236.844C0,106.034,106.036,0.002,236.835,0.002c130.807,0,236.842,106.032,236.842,236.842
	c0,130.795-106.036,236.831-236.842,236.831C106.039,473.675,0,367.639,0,236.844z"/>
<path style="fill:#D2D2D2;" d="M164.351,269.053c-1.593-28.664-17.441-61.871-17.441-69.541c0-17.008,6.155-19.008,6.155-36.02
	c0,0-1.021-21.824-18.268-22.004v-0.011c-0.037,0-0.067,0.004-0.101,0.004c-0.034,0-0.067-0.004-0.108-0.004v0.011
	c-17.243,0.18-18.268,22.004-18.268,22.004c0,17.011,6.163,19.012,6.163,36.02c0,7.67-15.841,40.877-17.449,69.541
	c-1.956,34.928,10.261,65.544,10.261,65.544h19.289h0.213h19.289C154.089,334.6,166.31,303.981,164.351,269.053z"/>
<g>
	<path style="fill:#DC3735;" d="M149.351,183.499H120.04c0.576,1.855,1.133,3.792,1.563,6.009h26.192
		C148.218,187.291,148.771,185.354,149.351,183.499z"/>
	<path style="fill:#DC3735;" d="M149.714,210.521h-30.033c-0.613,1.851-1.294,3.852-2.023,5.998h34.071
		C151.008,214.373,150.32,212.372,149.714,210.521z"/>
</g>
<path style="fill:#D2D2D2;" d="M385.98,269.053c-1.601-28.664-17.449-61.871-17.449-69.541c0-17.008,6.155-19.008,6.155-36.02
	c0,0-1.021-21.824-18.268-22.004v-0.011c-0.037,0-0.067,0.004-0.108,0.004c-0.03,0-0.06-0.004-0.101-0.004v0.011
	c-17.236,0.18-18.26,22.004-18.26,22.004c0,17.011,6.155,19.012,6.155,36.02c0,7.67-15.848,40.877-17.449,69.541
	c-1.956,34.928,10.269,65.544,10.269,65.544h19.281h0.213h19.289C375.711,334.6,387.928,303.981,385.98,269.053z"/>
<g>
	<path style="fill:#DC3735;" d="M370.969,183.499h-29.311c0.576,1.855,1.133,3.792,1.563,6.009h26.192
		C369.836,187.291,370.394,185.354,370.969,183.499z"/>
	<path style="fill:#DC3735;" d="M371.336,210.521h-30.033c-0.613,1.851-1.301,3.852-2.023,5.998h34.079
		C372.63,214.373,371.942,212.372,371.336,210.521z"/>
</g>
<path style="fill:#DBDBDA;" d="M220.108,272.49c-1.784-31.839-19.386-68.726-19.386-77.245c0-18.892,6.843-21.114,6.843-40.01
	c0,0-1.141-24.244-20.291-24.442v-0.011c-0.037,0-0.075,0.004-0.116,0.004c-0.037,0-0.075-0.004-0.116-0.004v0.011
	c-19.15,0.198-20.291,24.442-20.291,24.442c0,18.896,6.843,21.117,6.843,40.01c0,8.519-17.595,45.41-19.386,77.245
	c-2.161,38.802,11.402,72.813,11.402,72.813h21.428h0.236h21.424C208.702,345.303,222.28,311.291,220.108,272.49z"/>
<g>
	<path style="fill:#DC3735;" d="M203.433,177.46h-32.546c0.636,2.061,1.249,4.207,1.724,6.668h29.098
		C202.184,181.667,202.801,179.52,203.433,177.46z"/>
	<path style="fill:#DC3735;" d="M203.844,207.473H170.48c-0.681,2.057-1.432,4.286-2.244,6.668h37.848
		C205.284,211.755,204.521,209.526,203.844,207.473z"/>
</g>
<path style="fill:#DBDBDA;" d="M337.242,272.49c-1.784-31.839-19.386-68.726-19.386-77.245c0-18.892,6.843-21.114,6.843-40.01
	c0,0-1.133-24.244-20.291-24.442v-0.011c-0.037,0-0.075,0.004-0.116,0.004c-0.037,0-0.075-0.004-0.108-0.004v0.011
	c-19.158,0.198-20.298,24.442-20.298,24.442c0,18.896,6.843,21.117,6.843,40.01c0,8.519-17.602,45.41-19.378,77.245
	c-2.176,38.802,11.402,72.813,11.402,72.813h21.428h0.228h21.428C325.84,345.303,339.411,311.291,337.242,272.49z"/>
<g>
	<path style="fill:#DC3735;" d="M320.575,177.46h-32.553c0.636,2.061,1.249,4.207,1.731,6.668h29.098
		C319.318,181.667,319.932,179.52,320.575,177.46z"/>
	<path style="fill:#DC3735;" d="M320.975,207.473h-33.364c-0.673,2.057-1.432,4.286-2.244,6.668h37.856
		C322.407,211.755,321.656,209.526,320.975,207.473z"/>
</g>
<path style="fill:#E4E4E4;" d="M281.549,273.29c-1.956-34.913-21.263-75.36-21.263-84.701c0-20.717,7.502-23.159,7.502-43.876
	c0,0-1.242-26.585-22.239-26.802v-0.015c-0.045,0-0.086,0.004-0.131,0.004s-0.079-0.004-0.131-0.004v0.015
	c-20.998,0.217-22.239,26.802-22.239,26.802c0,20.717,7.502,23.159,7.502,43.876c0,9.341-19.304,49.789-21.263,84.701
	c-2.375,42.549,12.513,79.844,12.513,79.844h23.488h0.262h23.488C269.036,353.134,283.923,315.839,281.549,273.29z"/>
<g>
	<path style="fill:#DC3735;" d="M263.259,169.083h-35.687c0.703,2.259,1.365,4.611,1.892,7.315h31.902
		C261.886,173.694,262.559,171.342,263.259,169.083z"/>
	<path style="fill:#DC3735;" d="M263.715,201.991h-36.592c-0.744,2.259-1.571,4.697-2.461,7.311h41.509
		C265.285,206.688,264.451,204.246,263.715,201.991z"/>
</g>
<g>
</g>
<g>
</g>
<g>
</g>
<g>
</g>
<g>
</g>
<g>
</g>
<g>
</g>
<g>
</g>
<g>
</g>
<g>
</g>
<g>
</g>
<g>
</g>
<g>
</g>
<g>
</g>
<g>
</g>
</svg>
